<?xml version="1.0" encoding="utf-8"?>
<!-- Generator: Adobe Illustrator 23.0.1, SVG Export Plug-In . SVG Version: 6.00 Build 0)  -->
<svg version="1.1" id="Camada_1" xmlns="http://www.w3.org/2000/svg" xmlns:xlink="http://www.w3.org/1999/xlink" x="0px" y="0px"
	 viewBox="0 0 240.07 47.04" style="enable-background:new 0 0 240.07 47.04;" xml:space="preserve">
<style type="text/css">
	.st0{display:none;}
	.st1{display:inline;fill:#FF5454;}
	
		.st2{display:inline;fill:none;stroke:#FF5454;stroke-width:1.0612;stroke-linecap:round;stroke-linejoin:round;stroke-miterlimit:10;}
	.st3{display:none;fill:#FF5454;}
	.st4{fill:#FF5454;}
</style>
<g>
	<g class="st0">
		<path class="st1" d="M6.85,6.32c0,0.44-0.16,0.82-0.47,1.13C6.08,7.75,5.7,7.91,5.26,7.91S4.45,7.75,4.14,7.44
			C3.83,7.13,3.67,6.76,3.67,6.32c0-0.44,0.16-0.82,0.47-1.13c0.31-0.31,0.69-0.47,1.13-0.47s0.81,0.16,1.13,0.47
			C6.7,5.5,6.85,5.88,6.85,6.32z"/>
		<path class="st2" d="M6.85,6.32c0,0.44-0.16,0.82-0.47,1.13C6.08,7.75,5.7,7.91,5.26,7.91S4.45,7.75,4.14,7.44
			C3.83,7.13,3.67,6.76,3.67,6.32S3.83,5.5,4.14,5.19c0.31-0.31,0.69-0.47,1.13-0.47s0.81,0.16,1.13,0.47
			C6.7,5.5,6.85,5.88,6.85,6.32z"/>
		<path class="st1" d="M15.34,6.32c0,0.81-0.28,1.49-0.85,2.06c-0.57,0.57-1.26,0.86-2.06,0.86s-1.49-0.29-2.06-0.86
			S9.5,7.12,9.5,6.32s0.28-1.49,0.85-2.06s1.26-0.86,2.06-0.86s1.49,0.29,2.06,0.86C15.05,4.82,15.34,5.51,15.34,6.32z"/>
		<path class="st2" d="M15.34,6.32c0,0.81-0.28,1.49-0.85,2.06c-0.57,0.57-1.26,0.86-2.06,0.86s-1.49-0.29-2.06-0.86
			C9.79,7.81,9.5,7.12,9.5,6.32s0.28-1.49,0.85-2.06c0.57-0.57,1.26-0.86,2.06-0.86s1.49,0.29,2.06,0.86
			C15.05,4.82,15.34,5.51,15.34,6.32z"/>
		<path class="st1" d="M26.47,6.32c0,0.56-0.11,1.11-0.32,1.63c-0.22,0.52-0.52,0.98-0.92,1.38c-0.4,0.4-0.86,0.71-1.38,0.92
			c-0.52,0.22-1.06,0.32-1.62,0.32s-1.1-0.11-1.62-0.32c-0.52-0.22-0.98-0.52-1.38-0.92c-0.4-0.4-0.7-0.86-0.92-1.38
			s-0.32-1.06-0.32-1.63c0-0.56,0.11-1.11,0.32-1.63c0.22-0.52,0.52-0.98,0.92-1.38c0.4-0.4,0.86-0.71,1.38-0.92
			c0.52-0.22,1.06-0.32,1.62-0.32s1.1,0.11,1.62,0.32c0.52,0.22,0.98,0.52,1.38,0.92c0.4,0.4,0.7,0.86,0.92,1.38
			C26.37,5.21,26.47,5.75,26.47,6.32z"/>
		<path class="st2" d="M26.47,6.32c0,0.56-0.11,1.11-0.32,1.63c-0.22,0.52-0.52,0.98-0.92,1.38c-0.4,0.4-0.86,0.71-1.38,0.92
			c-0.52,0.22-1.06,0.32-1.62,0.32c-0.56,0-1.1-0.11-1.62-0.32c-0.52-0.22-0.98-0.52-1.38-0.92c-0.4-0.4-0.7-0.86-0.92-1.38
			c-0.22-0.52-0.32-1.06-0.32-1.63c0-0.56,0.11-1.11,0.32-1.63c0.22-0.52,0.52-0.98,0.92-1.38c0.4-0.4,0.86-0.71,1.38-0.92
			c0.52-0.22,1.06-0.32,1.62-0.32c0.56,0,1.1,0.11,1.62,0.32c0.52,0.22,0.98,0.52,1.38,0.92c0.4,0.4,0.7,0.86,0.92,1.38
			C26.37,5.21,26.47,5.75,26.47,6.32z"/>
		<path class="st1" d="M34.96,6.32c0,0.81-0.28,1.5-0.85,2.07c-0.57,0.57-1.26,0.86-2.06,0.86c-0.81,0-1.49-0.29-2.06-0.86
			c-0.57-0.57-0.85-1.26-0.85-2.07c0-0.81,0.28-1.49,0.85-2.07s1.26-0.86,2.06-0.86c0.81,0,1.49,0.29,2.06,0.86
			S34.96,5.51,34.96,6.32z"/>
		<path class="st2" d="M34.96,6.32c0,0.81-0.28,1.5-0.85,2.07c-0.57,0.57-1.26,0.86-2.06,0.86s-1.49-0.29-2.06-0.86
			c-0.57-0.57-0.85-1.26-0.85-2.07c0-0.81,0.28-1.5,0.85-2.07c0.57-0.57,1.26-0.86,2.06-0.86s1.49,0.29,2.06,0.86
			C34.67,4.82,34.96,5.51,34.96,6.32z"/>
		<path class="st1" d="M40.79,6.32c0,0.44-0.16,0.82-0.47,1.13c-0.31,0.31-0.69,0.47-1.12,0.47c-0.44,0-0.81-0.16-1.12-0.47
			c-0.31-0.31-0.47-0.69-0.47-1.13c0-0.44,0.16-0.82,0.47-1.13s0.69-0.47,1.12-0.47c0.44,0,0.81,0.16,1.12,0.47
			S40.79,5.88,40.79,6.32z"/>
		<path class="st2" d="M40.79,6.32c0,0.44-0.16,0.82-0.47,1.13c-0.31,0.31-0.69,0.47-1.12,0.47c-0.44,0-0.81-0.16-1.12-0.47
			c-0.31-0.31-0.47-0.69-0.47-1.13c0-0.44,0.16-0.82,0.47-1.13c0.31-0.31,0.69-0.47,1.12-0.47c0.44,0,0.81,0.16,1.12,0.47
			C40.64,5.5,40.79,5.88,40.79,6.32z"/>
		<path class="st1" d="M8.18,13.48c0,0.81-0.28,1.49-0.85,2.06c-0.57,0.57-1.26,0.86-2.06,0.86s-1.49-0.29-2.06-0.86
			c-0.57-0.57-0.85-1.26-0.85-2.06c0-0.81,0.28-1.49,0.85-2.06c0.57-0.57,1.26-0.86,2.06-0.86s1.49,0.29,2.06,0.86
			C7.89,11.99,8.18,12.68,8.18,13.48z"/>
		<path class="st2" d="M8.18,13.48c0,0.81-0.28,1.49-0.85,2.06c-0.57,0.57-1.26,0.86-2.06,0.86s-1.49-0.29-2.06-0.86
			c-0.57-0.57-0.85-1.26-0.85-2.06s0.28-1.49,0.85-2.06c0.57-0.57,1.26-0.86,2.06-0.86s1.49,0.29,2.06,0.86
			C7.89,11.99,8.18,12.68,8.18,13.48z"/>
		<path class="st1" d="M15.34,14.81c0,0.44-0.16,0.82-0.47,1.13s-0.69,0.47-1.12,0.47c-0.44,0-0.81-0.16-1.12-0.47
			s-0.47-0.69-0.47-1.13c0-0.44,0.16-0.82,0.47-1.13s0.69-0.47,1.12-0.47c0.44,0,0.81,0.16,1.12,0.47S15.34,14.37,15.34,14.81z"/>
		<path class="st2" d="M15.34,14.81c0,0.44-0.16,0.82-0.47,1.13s-0.69,0.47-1.12,0.47s-0.81-0.16-1.12-0.47s-0.47-0.69-0.47-1.13
			c0-0.44,0.16-0.82,0.47-1.13s0.69-0.47,1.12-0.47s0.81,0.16,1.12,0.47S15.34,14.37,15.34,14.81z"/>
		<path class="st1" d="M25.15,16.14c0,0.81-0.28,1.49-0.85,2.06c-0.57,0.57-1.26,0.86-2.06,0.86s-1.49-0.29-2.06-0.86
			s-0.85-1.26-0.85-2.06c0-0.81,0.28-1.49,0.85-2.06s1.26-0.86,2.06-0.86s1.49,0.29,2.06,0.86C24.86,14.64,25.15,15.33,25.15,16.14z
			"/>
		<path class="st2" d="M25.15,16.14c0,0.81-0.28,1.49-0.85,2.06c-0.57,0.57-1.26,0.86-2.06,0.86s-1.49-0.29-2.06-0.86
			c-0.57-0.57-0.85-1.26-0.85-2.06c0-0.81,0.28-1.49,0.85-2.06c0.57-0.57,1.26-0.86,2.06-0.86s1.49,0.29,2.06,0.86
			C24.86,14.64,25.15,15.33,25.15,16.14z"/>
		<path class="st1" d="M32.31,14.81c0,0.44-0.16,0.82-0.47,1.13c-0.31,0.31-0.69,0.47-1.13,0.47s-0.81-0.16-1.13-0.47
			c-0.31-0.31-0.47-0.69-0.47-1.13c0-0.44,0.16-0.82,0.47-1.13c0.31-0.31,0.69-0.47,1.13-0.47s0.81,0.16,1.13,0.47
			C32.15,14,32.31,14.37,32.31,14.81z"/>
		<path class="st2" d="M32.31,14.81c0,0.44-0.16,0.82-0.47,1.13c-0.31,0.31-0.69,0.47-1.13,0.47c-0.44,0-0.81-0.16-1.13-0.47
			c-0.31-0.31-0.47-0.69-0.47-1.13c0-0.44,0.16-0.82,0.47-1.13c0.31-0.31,0.69-0.47,1.13-0.47c0.44,0,0.81,0.16,1.13,0.47
			C32.15,14,32.31,14.37,32.31,14.81z"/>
		<path class="st1" d="M42.12,13.48c0,0.81-0.28,1.49-0.85,2.07c-0.57,0.57-1.26,0.86-2.06,0.86c-0.81,0-1.49-0.29-2.06-0.86
			s-0.85-1.26-0.85-2.07c0-0.81,0.28-1.5,0.85-2.07c0.57-0.57,1.26-0.86,2.06-0.86c0.81,0,1.49,0.29,2.06,0.86
			C41.83,11.99,42.12,12.68,42.12,13.48z"/>
		<path class="st2" d="M42.12,13.48c0,0.81-0.28,1.5-0.85,2.07c-0.57,0.57-1.26,0.86-2.06,0.86c-0.81,0-1.49-0.29-2.06-0.86
			c-0.57-0.57-0.85-1.26-0.85-2.07s0.28-1.5,0.85-2.07c0.57-0.57,1.26-0.86,2.06-0.86c0.81,0,1.49,0.29,2.06,0.86
			C41.83,11.99,42.12,12.68,42.12,13.48z"/>
		<path class="st1" d="M9.5,23.31c0,0.56-0.11,1.11-0.32,1.63c-0.22,0.52-0.52,0.98-0.92,1.38c-0.4,0.4-0.86,0.71-1.38,0.92
			c-0.52,0.22-1.06,0.32-1.62,0.32c-0.56,0-1.1-0.11-1.62-0.32c-0.52-0.22-0.98-0.52-1.38-0.92c-0.4-0.4-0.7-0.86-0.92-1.38
			c-0.22-0.52-0.32-1.06-0.32-1.63c0-0.56,0.11-1.11,0.32-1.63c0.22-0.52,0.52-0.98,0.92-1.38c0.4-0.4,0.86-0.71,1.38-0.92
			c0.52-0.22,1.06-0.32,1.62-0.32c0.56,0,1.1,0.11,1.62,0.32c0.52,0.22,0.98,0.52,1.38,0.92c0.4,0.4,0.7,0.86,0.92,1.38
			C9.4,22.2,9.5,22.74,9.5,23.31z"/>
		<path class="st2" d="M9.5,23.31c0,0.56-0.11,1.11-0.32,1.63c-0.22,0.52-0.52,0.98-0.92,1.38c-0.4,0.4-0.86,0.71-1.38,0.92
			c-0.52,0.22-1.06,0.32-1.62,0.32c-0.56,0-1.1-0.11-1.62-0.32c-0.52-0.22-0.98-0.52-1.38-0.92c-0.4-0.4-0.7-0.86-0.92-1.38
			c-0.22-0.52-0.32-1.06-0.32-1.63s0.11-1.11,0.32-1.63c0.22-0.52,0.52-0.98,0.92-1.38c0.4-0.4,0.86-0.71,1.38-0.92
			c0.52-0.22,1.06-0.32,1.62-0.32c0.56,0,1.1,0.11,1.62,0.32c0.52,0.22,0.98,0.52,1.38,0.92c0.4,0.4,0.7,0.86,0.92,1.38
			C9.4,22.2,9.5,22.74,9.5,23.31z"/>
		<path class="st1" d="M17.99,23.31c0,0.81-0.28,1.49-0.85,2.06c-0.57,0.57-1.26,0.86-2.06,0.86s-1.49-0.29-2.06-0.86
			c-0.57-0.57-0.85-1.26-0.85-2.06c0-0.81,0.28-1.49,0.85-2.06c0.57-0.57,1.26-0.86,2.06-0.86s1.49,0.29,2.06,0.86
			C17.7,21.81,17.99,22.5,17.99,23.31z"/>
		<path class="st2" d="M17.99,23.31c0,0.81-0.28,1.49-0.85,2.06c-0.57,0.57-1.26,0.86-2.06,0.86c-0.81,0-1.49-0.29-2.06-0.86
			c-0.57-0.57-0.85-1.26-0.85-2.06s0.28-1.49,0.85-2.06c0.57-0.57,1.26-0.86,2.06-0.86c0.81,0,1.49,0.29,2.06,0.86
			C17.7,21.81,17.99,22.5,17.99,23.31z"/>
		<path class="st1" d="M23.82,23.31c0,0.44-0.16,0.82-0.47,1.13s-0.69,0.47-1.12,0.47s-0.81-0.16-1.12-0.47
			c-0.31-0.31-0.47-0.69-0.47-1.13c0-0.44,0.16-0.82,0.47-1.13c0.31-0.31,0.69-0.47,1.12-0.47s0.81,0.16,1.12,0.47
			C23.67,22.49,23.82,22.87,23.82,23.31z"/>
		<path class="st2" d="M23.82,23.31c0,0.44-0.16,0.82-0.47,1.13s-0.69,0.47-1.12,0.47c-0.44,0-0.81-0.16-1.12-0.47
			s-0.47-0.69-0.47-1.13c0-0.44,0.16-0.82,0.47-1.13s0.69-0.47,1.12-0.47c0.44,0,0.81,0.16,1.12,0.47S23.82,22.87,23.82,23.31z"/>
		<path class="st1" d="M32.31,23.31c0,0.81-0.28,1.49-0.85,2.06c-0.57,0.57-1.26,0.86-2.06,0.86s-1.49-0.29-2.06-0.86
			c-0.57-0.57-0.85-1.26-0.85-2.06c0-0.81,0.28-1.49,0.85-2.06c0.57-0.57,1.26-0.86,2.06-0.86s1.49,0.29,2.06,0.86
			C32.02,21.81,32.31,22.5,32.31,23.31z"/>
		<path class="st2" d="M32.31,23.31c0,0.81-0.28,1.49-0.85,2.06c-0.57,0.57-1.26,0.86-2.06,0.86s-1.49-0.29-2.06-0.86
			c-0.57-0.57-0.85-1.26-0.85-2.06s0.28-1.49,0.85-2.06c0.57-0.57,1.26-0.86,2.06-0.86s1.49,0.29,2.06,0.86
			C32.02,21.81,32.31,22.5,32.31,23.31z"/>
		<path class="st1" d="M43.44,23.31c0,0.56-0.11,1.11-0.32,1.63c-0.22,0.52-0.52,0.98-0.92,1.38c-0.4,0.4-0.86,0.71-1.38,0.92
			c-0.52,0.22-1.06,0.32-1.62,0.32c-0.56,0-1.1-0.11-1.62-0.32c-0.52-0.22-0.98-0.52-1.38-0.92c-0.4-0.4-0.7-0.86-0.92-1.38
			s-0.32-1.06-0.32-1.63c0-0.56,0.11-1.11,0.32-1.63s0.52-0.98,0.92-1.38c0.4-0.4,0.86-0.71,1.38-0.92
			c0.52-0.22,1.06-0.32,1.62-0.32c0.56,0,1.1,0.11,1.62,0.32c0.52,0.22,0.98,0.52,1.38,0.92c0.4,0.4,0.7,0.86,0.92,1.38
			C43.33,22.2,43.44,22.74,43.44,23.31z"/>
		<path class="st2" d="M43.44,23.31c0,0.56-0.11,1.11-0.32,1.63c-0.22,0.52-0.52,0.98-0.92,1.38c-0.4,0.4-0.86,0.71-1.38,0.92
			c-0.52,0.22-1.06,0.32-1.62,0.32c-0.56,0-1.1-0.11-1.62-0.32c-0.52-0.22-0.98-0.52-1.38-0.92c-0.4-0.4-0.7-0.86-0.92-1.38
			c-0.22-0.52-0.32-1.06-0.32-1.63c0-0.56,0.11-1.11,0.32-1.63c0.22-0.52,0.52-0.98,0.92-1.38s0.86-0.71,1.38-0.92
			c0.52-0.22,1.06-0.32,1.62-0.32c0.56,0,1.1,0.11,1.62,0.32c0.52,0.22,0.98,0.52,1.38,0.92s0.7,0.86,0.92,1.38
			C43.33,22.2,43.44,22.74,43.44,23.31z"/>
		<path class="st1" d="M8.18,33.13c0,0.81-0.28,1.49-0.85,2.06c-0.57,0.57-1.26,0.86-2.06,0.86s-1.49-0.29-2.06-0.86
			c-0.57-0.57-0.85-1.26-0.85-2.06s0.28-1.49,0.85-2.06c0.57-0.57,1.26-0.86,2.06-0.86s1.49,0.29,2.06,0.86
			C7.89,31.63,8.18,32.32,8.18,33.13z"/>
		<path class="st2" d="M8.18,33.13c0,0.81-0.28,1.49-0.85,2.06c-0.57,0.57-1.26,0.86-2.06,0.86s-1.49-0.29-2.06-0.86
			c-0.57-0.57-0.85-1.26-0.85-2.06c0-0.81,0.28-1.49,0.85-2.06c0.57-0.57,1.26-0.86,2.06-0.86s1.49,0.29,2.06,0.86
			C7.89,31.63,8.18,32.32,8.18,33.13z"/>
		<path class="st1" d="M15.34,31.8c0,0.44-0.16,0.82-0.47,1.13s-0.69,0.47-1.12,0.47c-0.44,0-0.81-0.16-1.12-0.47
			s-0.47-0.69-0.47-1.13c0-0.44,0.16-0.82,0.47-1.13s0.69-0.47,1.12-0.47c0.44,0,0.81,0.16,1.12,0.47S15.34,31.36,15.34,31.8z"/>
		<path class="st2" d="M15.34,31.8c0,0.44-0.16,0.82-0.47,1.13s-0.69,0.47-1.12,0.47s-0.81-0.16-1.12-0.47s-0.47-0.69-0.47-1.13
			c0-0.44,0.16-0.82,0.47-1.13c0.31-0.31,0.69-0.47,1.12-0.47s0.81,0.16,1.12,0.47C15.18,30.99,15.34,31.36,15.34,31.8z"/>
		<path class="st1" d="M25.15,30.48c0,1.61-1.31,2.92-2.92,2.92c-1.61,0-2.92-1.31-2.92-2.92c0-1.61,1.31-2.92,2.92-2.92
			C23.84,27.55,25.15,28.86,25.15,30.48z"/>
		<path class="st2" d="M25.15,30.48c0,1.61-1.31,2.92-2.92,2.92c-1.61,0-2.92-1.31-2.92-2.92c0-1.61,1.31-2.92,2.92-2.92
			C23.84,27.55,25.15,28.86,25.15,30.48z"/>
		<path class="st1" d="M32.31,31.8c0,0.44-0.16,0.82-0.47,1.13c-0.31,0.31-0.69,0.47-1.13,0.47c-0.44,0-0.81-0.16-1.13-0.47
			c-0.31-0.31-0.47-0.69-0.47-1.13c0-0.44,0.16-0.82,0.47-1.13c0.31-0.31,0.69-0.47,1.13-0.47s0.81,0.16,1.13,0.47
			C32.15,30.99,32.31,31.36,32.31,31.8z"/>
		<path class="st2" d="M32.31,31.8c0,0.44-0.16,0.82-0.47,1.13c-0.31,0.31-0.69,0.47-1.13,0.47c-0.44,0-0.81-0.16-1.13-0.47
			c-0.31-0.31-0.47-0.69-0.47-1.13c0-0.44,0.16-0.82,0.47-1.13c0.31-0.31,0.69-0.47,1.13-0.47c0.44,0,0.81,0.16,1.13,0.47
			C32.15,30.99,32.31,31.36,32.31,31.8z"/>
		<path class="st1" d="M42.12,33.13c0,0.81-0.28,1.5-0.85,2.07c-0.57,0.57-1.26,0.86-2.06,0.86c-0.81,0-1.49-0.29-2.06-0.86
			c-0.57-0.57-0.85-1.26-0.85-2.07s0.28-1.5,0.85-2.07c0.57-0.57,1.26-0.86,2.06-0.86c0.81,0,1.49,0.29,2.06,0.86
			C41.83,31.63,42.12,32.32,42.12,33.13z"/>
		<path class="st2" d="M42.12,33.13c0,0.81-0.28,1.49-0.85,2.07c-0.57,0.57-1.26,0.86-2.06,0.86c-0.81,0-1.49-0.29-2.06-0.86
			c-0.57-0.57-0.85-1.26-0.85-2.07c0-0.81,0.28-1.5,0.85-2.07c0.57-0.57,1.26-0.86,2.06-0.86c0.81,0,1.49,0.29,2.06,0.86
			C41.83,31.63,42.12,32.32,42.12,33.13z"/>
		<path class="st1" d="M6.85,40.3c0,0.44-0.16,0.82-0.47,1.13c-0.31,0.31-0.69,0.47-1.13,0.47s-0.81-0.16-1.13-0.47
			c-0.31-0.31-0.47-0.69-0.47-1.13s0.16-0.82,0.47-1.13c0.31-0.31,0.69-0.47,1.13-0.47s0.81,0.16,1.13,0.47
			C6.7,39.48,6.85,39.86,6.85,40.3z"/>
		<path class="st2" d="M6.85,40.3c0,0.44-0.16,0.82-0.47,1.13c-0.31,0.31-0.69,0.47-1.13,0.47s-0.81-0.16-1.13-0.47
			s-0.47-0.69-0.47-1.13c0-0.44,0.16-0.82,0.47-1.13c0.31-0.31,0.69-0.47,1.13-0.47s0.81,0.16,1.13,0.47
			C6.7,39.48,6.85,39.86,6.85,40.3z"/>
		<path class="st1" d="M15.34,40.3c0,0.81-0.28,1.49-0.85,2.06c-0.57,0.57-1.26,0.86-2.06,0.86s-1.49-0.29-2.06-0.86
			S9.5,41.1,9.5,40.3s0.28-1.49,0.85-2.06s1.26-0.86,2.06-0.86s1.49,0.29,2.06,0.86C15.05,38.8,15.34,39.49,15.34,40.3z"/>
		<path class="st2" d="M15.34,40.3c0,0.81-0.28,1.49-0.85,2.06c-0.57,0.57-1.26,0.86-2.06,0.86c-0.81,0-1.49-0.29-2.06-0.86
			C9.79,41.79,9.5,41.1,9.5,40.3c0-0.81,0.28-1.49,0.85-2.06c0.57-0.57,1.26-0.86,2.06-0.86s1.49,0.29,2.06,0.86
			C15.05,38.8,15.34,39.49,15.34,40.3z"/>
		<path class="st1" d="M26.47,40.3c0,0.56-0.11,1.11-0.32,1.63c-0.22,0.52-0.52,0.98-0.92,1.38c-0.4,0.4-0.86,0.71-1.38,0.92
			c-0.52,0.22-1.06,0.32-1.62,0.32s-1.1-0.11-1.62-0.32c-0.52-0.22-0.98-0.52-1.38-0.92c-0.4-0.4-0.7-0.86-0.92-1.38
			c-0.22-0.52-0.32-1.06-0.32-1.63s0.11-1.11,0.32-1.63c0.22-0.52,0.52-0.98,0.92-1.38c0.4-0.4,0.86-0.71,1.38-0.92
			c0.52-0.22,1.06-0.32,1.62-0.32s1.1,0.11,1.62,0.32c0.52,0.22,0.98,0.52,1.38,0.92c0.4,0.4,0.7,0.86,0.92,1.38
			C26.37,39.19,26.47,39.73,26.47,40.3z"/>
		<path class="st2" d="M26.47,40.3c0,0.56-0.11,1.11-0.32,1.63c-0.22,0.52-0.52,0.98-0.92,1.38c-0.4,0.4-0.86,0.71-1.38,0.92
			c-0.52,0.22-1.06,0.32-1.62,0.32c-0.56,0-1.1-0.11-1.62-0.32s-0.98-0.52-1.38-0.92c-0.4-0.4-0.7-0.86-0.92-1.38
			c-0.22-0.52-0.32-1.06-0.32-1.63c0-0.56,0.11-1.11,0.32-1.63c0.22-0.52,0.52-0.98,0.92-1.38c0.4-0.4,0.86-0.71,1.38-0.92
			c0.52-0.22,1.06-0.32,1.62-0.32c0.56,0,1.1,0.11,1.62,0.32c0.52,0.22,0.98,0.52,1.38,0.92c0.4,0.4,0.7,0.86,0.92,1.38
			C26.37,39.19,26.47,39.73,26.47,40.3z"/>
		<path class="st1" d="M34.96,40.3c0,0.81-0.28,1.5-0.85,2.07c-0.57,0.57-1.26,0.86-2.06,0.86c-0.81,0-1.49-0.29-2.06-0.86
			c-0.57-0.57-0.85-1.26-0.85-2.07c0-0.81,0.28-1.5,0.85-2.07c0.57-0.57,1.26-0.86,2.06-0.86c0.81,0,1.49,0.29,2.06,0.86
			C34.67,38.8,34.96,39.49,34.96,40.3z"/>
		<path class="st2" d="M34.96,40.3c0,0.81-0.28,1.49-0.85,2.07c-0.57,0.57-1.26,0.86-2.06,0.86s-1.49-0.29-2.06-0.86
			c-0.57-0.57-0.85-1.26-0.85-2.07c0-0.81,0.28-1.5,0.85-2.07c0.57-0.57,1.26-0.86,2.06-0.86s1.49,0.29,2.06,0.86
			C34.67,38.8,34.96,39.49,34.96,40.3z"/>
		<path class="st1" d="M40.79,40.3c0,0.44-0.16,0.82-0.47,1.13s-0.69,0.47-1.12,0.47c-0.44,0-0.81-0.16-1.12-0.47
			s-0.47-0.69-0.47-1.13c0-0.44,0.16-0.82,0.47-1.13s0.69-0.47,1.12-0.47c0.44,0,0.81,0.16,1.12,0.47S40.79,39.86,40.79,40.3z"/>
		<path class="st2" d="M40.79,40.3c0,0.44-0.16,0.82-0.47,1.13c-0.31,0.31-0.69,0.47-1.12,0.47c-0.44,0-0.81-0.16-1.12-0.47
			c-0.31-0.31-0.47-0.69-0.47-1.13c0-0.44,0.16-0.82,0.47-1.13c0.31-0.31,0.69-0.47,1.12-0.47c0.44,0,0.81,0.16,1.12,0.47
			C40.64,39.48,40.79,39.86,40.79,40.3z"/>
	</g>
	<path class="st3" d="M85.74,5.48L67.96,20.53c5.36,6.36,11.99,14.34,17.21,20.55H75.03l-12.8-15.81l-3.32,2.75v13.05h-7.59V5.48
		h7.59v13.58c5.26-4.51,10.71-9.11,15.88-13.58H85.74z"/>
	<path class="st3" d="M232.93,30.26l5.03,5.03c-3.65,4.08-8.68,6.22-13.99,6.22c-10.15,0-18.25-7.88-18.25-18.23
		c0-10.3,8.11-18.18,18.25-18.18c5.31,0,10.33,2.14,14.03,6.27l-5.12,5.13c-1.99-3.32-5.4-5.08-8.91-5.08
		c-6.31,0-10.67,5.74-10.67,11.87c0,6.12,4.31,11.91,10.67,11.91C226.67,35.2,229.33,34.39,232.93,30.26L232.93,30.26z"/>
	<rect x="197.87" y="5.48" class="st3" width="7.59" height="35.6"/>
	<polygon class="st3" points="199.35,5.48 199.35,11.8 189.07,11.8 189.07,41.08 181.43,41.08 181.43,11.8 171.15,11.8 171.15,5.48 
			"/>
	<polygon class="st4" points="173.01,5.48 173.01,41.08 164.91,41.08 149.17,17.73 149.17,41.08 141.53,41.08 141.53,5.48 
		149.59,5.48 165.38,28.88 165.38,5.48 173.01,5.48 	"/>
	<g class="st0">
		<path class="st1" d="M128.51,5.48h-4.88l-14.65,35.6h8.2l2.8-6.84h12.09l2.89,6.84h8.15L128.51,5.48z M122.4,27.94
			c1.23-3.32,2.56-7.31,3.65-10.25l3.65,10.25H122.4z"/>
	</g>
	<path class="st3" d="M104.59,5.48h7.63v21.41c0,5.84-2.37,14.62-14.7,14.62c-12.28,0-14.74-8.78-14.74-14.62V5.48h7.59v21.41
		c0,1.76,0.38,8.31,7.16,8.31c6.78,0,7.06-6.55,7.06-8.31V5.48z"/>
</g>
</svg>
